<svg width="664" height="463" viewBox="0 0 664 463" fill="none" xmlns="http://www.w3.org/2000/svg">
<g clip-path="url(#clip0_1_21)">
<path d="M386.779 81.6215C399.223 81.6215 409.312 71.9495 409.312 60.0186C409.312 48.0876 399.223 38.4156 386.779 38.4156C374.334 38.4156 364.246 48.0876 364.246 60.0186C364.246 71.9495 374.334 81.6215 386.779 81.6215Z" fill="#F2F2F2"/>
<path d="M561.573 402.234C595.066 377.776 611.063 336.678 601.048 297.473C600.799 296.498 600.536 295.527 600.26 294.557C593.621 271.285 577.195 249.167 553.255 241.731C533.153 235.488 511.212 240.289 490.241 237.806C449.074 232.932 417.158 200.998 394.702 167.563C372.245 134.127 354.986 96.7011 325.146 69.0785C275.959 23.5475 195.723 13.7446 134.739 43.3819C73.7544 73.0193 34.9079 138.772 36.5646 204.303C38.2214 269.834 78.7988 332.487 137.727 365.728C159.375 377.939 184.413 386.59 209.331 383.563C230.952 380.936 250.597 369.798 272.116 366.492C305.949 361.293 339.567 375.959 368.83 393.049C398.093 410.139 426.359 430.395 459.612 438.318C491.901 446.011 531.904 423.899 561.573 402.234Z" fill="#F2F2F2"/>
<path d="M513.453 44.758C512.718 44.2888 511.976 43.8438 511.242 43.3907C490.018 30.3773 467.27 19.8054 443.468 11.8934L437.949 84.8882H402.96V1.23784C400.758 0.800938 398.538 0.388311 396.319 -4.57764e-05V84.8882H354.74C331.85 84.8882 309.898 76.1705 293.712 60.653C277.527 45.1355 268.434 24.0892 268.434 2.1441C266.206 2.60527 263.995 3.09874 261.784 3.62464V84.8882H227.918L222.66 15.2834C198.2 24.2773 174.978 36.1048 153.511 50.5025C153.14 50.7452 152.768 50.996 152.406 51.2387C150.54 52.4928 148.701 53.7712 146.87 55.0657V333.542H246.678L244.914 310.119L235.209 181.516H430.649L420.944 310.119L419.18 333.542H517.883V47.5736C516.415 46.6189 514.938 45.6804 513.453 44.758ZM261.784 160.278H233.606L228.399 91.2637H261.784V160.278ZM396.319 160.278H348.993V158.911C348.993 158.253 348.858 157.602 348.595 156.995C348.332 156.388 347.948 155.836 347.462 155.372C346.977 154.908 346.401 154.54 345.768 154.289C345.134 154.038 344.455 153.909 343.769 153.91H323.195C322.51 153.91 321.831 154.039 321.199 154.291C320.566 154.542 319.991 154.91 319.506 155.374C319.022 155.839 318.638 156.39 318.376 156.997C318.114 157.604 317.979 158.254 317.979 158.911V160.278H268.434V91.2637H396.319V160.278ZM402.96 160.278V91.2637H437.468L432.261 160.278H402.96Z" fill="#3F3D56"/>
<path d="M0 351.374C7.3312 359.702 15.2607 367.529 23.7306 374.797L640.269 375.606C648.739 368.338 656.669 360.512 664 352.183L0 351.374Z" fill="#3F3D56"/>
<path d="M418.095 276.373V345.714C418.096 346.598 418.462 347.445 419.114 348.07C419.766 348.695 420.649 349.046 421.571 349.047H528.751C529.672 349.046 530.556 348.695 531.208 348.07C531.859 347.445 532.226 346.598 532.227 345.714V276.373C532.224 275.49 531.857 274.644 531.206 274.02C530.554 273.396 529.671 273.045 528.751 273.044H421.571C420.65 273.045 419.767 273.396 419.116 274.02C418.464 274.644 418.097 275.49 418.095 276.373Z" fill="#3F3D56"/>
<path d="M420.609 277.236V344.859C420.61 345.331 420.806 345.784 421.154 346.118C421.503 346.451 421.975 346.639 422.467 346.64H527.858C528.351 346.639 528.823 346.451 529.171 346.118C529.519 345.784 529.715 345.331 529.716 344.859V277.236C529.716 276.763 529.521 276.31 529.172 275.975C528.824 275.641 528.351 275.452 527.858 275.451H422.467C421.974 275.452 421.502 275.641 421.153 275.975C420.805 276.31 420.609 276.763 420.609 277.236Z" fill="#10F5CC"/>
<path d="M415.853 359.238C416.05 359.474 416.299 359.664 416.583 359.794C416.867 359.925 417.179 359.992 417.493 359.99H532.258C532.571 359.99 532.881 359.922 533.164 359.793C533.448 359.663 533.697 359.475 533.895 359.241C534.093 359.007 534.234 358.734 534.307 358.442C534.381 358.149 534.386 357.845 534.322 357.55L532.54 349.437C532.466 349.107 532.307 348.799 532.078 348.542C531.848 348.285 531.555 348.087 531.225 347.967C530.987 347.877 530.732 347.831 530.476 347.831H419.268C419.011 347.831 418.757 347.877 418.519 347.967C418.189 348.087 417.896 348.285 417.666 348.542C417.436 348.799 417.277 349.107 417.204 349.437L415.422 357.55C415.359 357.844 415.365 358.149 415.439 358.441C415.514 358.733 415.655 359.005 415.853 359.238Z" fill="#2F2E41"/>
<path d="M526.538 351.325H529.249C529.476 351.325 529.661 351.149 529.661 350.93V349.687C529.661 349.469 529.476 349.292 529.249 349.292H526.538C526.311 349.292 526.126 349.469 526.126 349.687V350.93C526.126 351.149 526.311 351.325 526.538 351.325Z" fill="#3F3D56"/>
<path d="M519.469 351.325H522.18C522.407 351.325 522.592 351.149 522.592 350.93V349.687C522.592 349.469 522.407 349.292 522.18 349.292H519.469C519.241 349.292 519.057 349.469 519.057 349.687V350.93C519.057 351.149 519.241 351.325 519.469 351.325Z" fill="#3F3D56"/>
<path d="M512.4 351.325H515.11C515.338 351.325 515.522 351.149 515.522 350.93V349.687C515.522 349.469 515.338 349.292 515.11 349.292H512.4C512.172 349.292 511.988 349.469 511.988 349.687V350.93C511.988 351.149 512.172 351.325 512.4 351.325Z" fill="#3F3D56"/>
<path d="M505.33 351.325H508.041C508.268 351.325 508.453 351.149 508.453 350.93V349.687C508.453 349.469 508.268 349.292 508.041 349.292H505.33C505.103 349.292 504.918 349.469 504.918 349.687V350.93C504.918 351.149 505.103 351.325 505.33 351.325Z" fill="#3F3D56"/>
<path d="M498.261 351.325H500.972C501.199 351.325 501.384 351.149 501.384 350.93V349.687C501.384 349.469 501.199 349.292 500.972 349.292H498.261C498.033 349.292 497.849 349.469 497.849 349.687V350.93C497.849 351.149 498.033 351.325 498.261 351.325Z" fill="#3F3D56"/>
<path d="M491.191 351.325H493.902C494.13 351.325 494.314 351.149 494.314 350.93V349.687C494.314 349.469 494.13 349.292 493.902 349.292H491.191C490.964 349.292 490.78 349.469 490.78 349.687V350.93C490.78 351.149 490.964 351.325 491.191 351.325Z" fill="#3F3D56"/>
<path d="M484.122 351.325H486.833C487.06 351.325 487.245 351.149 487.245 350.93V349.687C487.245 349.469 487.06 349.292 486.833 349.292H484.122C483.895 349.292 483.71 349.469 483.71 349.687V350.93C483.71 351.149 483.895 351.325 484.122 351.325Z" fill="#3F3D56"/>
<path d="M477.053 351.325H479.763C479.991 351.325 480.175 351.149 480.175 350.93V349.687C480.175 349.469 479.991 349.292 479.763 349.292H477.053C476.825 349.292 476.641 349.469 476.641 349.687V350.93C476.641 351.149 476.825 351.325 477.053 351.325Z" fill="#3F3D56"/>
<path d="M469.983 351.325H472.694C472.922 351.325 473.106 351.149 473.106 350.93V349.687C473.106 349.469 472.922 349.292 472.694 349.292H469.983C469.756 349.292 469.571 349.469 469.571 349.687V350.93C469.571 351.149 469.756 351.325 469.983 351.325Z" fill="#3F3D56"/>
<path d="M462.914 351.325H465.625C465.852 351.325 466.037 351.149 466.037 350.93V349.687C466.037 349.469 465.852 349.292 465.625 349.292H462.914C462.686 349.292 462.502 349.469 462.502 349.687V350.93C462.502 351.149 462.686 351.325 462.914 351.325Z" fill="#3F3D56"/>
<path d="M455.845 351.325H458.555C458.783 351.325 458.967 351.149 458.967 350.93V349.687C458.967 349.469 458.783 349.292 458.555 349.292H455.845C455.617 349.292 455.433 349.469 455.433 349.687V350.93C455.433 351.149 455.617 351.325 455.845 351.325Z" fill="#3F3D56"/>
<path d="M448.775 351.325H451.486C451.713 351.325 451.898 351.149 451.898 350.93V349.687C451.898 349.469 451.713 349.292 451.486 349.292H448.775C448.548 349.292 448.363 349.469 448.363 349.687V350.93C448.363 351.149 448.548 351.325 448.775 351.325Z" fill="#3F3D56"/>
<path d="M441.706 351.325H444.417C444.644 351.325 444.829 351.149 444.829 350.93V349.687C444.829 349.469 444.644 349.292 444.417 349.292H441.706C441.478 349.292 441.294 349.469 441.294 349.687V350.93C441.294 351.149 441.478 351.325 441.706 351.325Z" fill="#3F3D56"/>
<path d="M434.637 351.325H437.347C437.575 351.325 437.759 351.149 437.759 350.93V349.687C437.759 349.469 437.575 349.292 437.347 349.292H434.637C434.409 349.292 434.225 349.469 434.225 349.687V350.93C434.225 351.149 434.409 351.325 434.637 351.325Z" fill="#3F3D56"/>
<path d="M427.567 351.325H430.278C430.506 351.325 430.69 351.149 430.69 350.93V349.687C430.69 349.469 430.506 349.292 430.278 349.292H427.567C427.34 349.292 427.155 349.469 427.155 349.687V350.93C427.155 351.149 427.34 351.325 427.567 351.325Z" fill="#3F3D56"/>
<path d="M420.498 351.325H423.209C423.436 351.325 423.62 351.149 423.62 350.93V349.687C423.62 349.469 423.436 349.292 423.209 349.292H420.498C420.27 349.292 420.086 349.469 420.086 349.687V350.93C420.086 351.149 420.27 351.325 420.498 351.325Z" fill="#3F3D56"/>
<path d="M526.622 354.714H529.332C529.56 354.714 529.745 354.537 529.745 354.319V353.076C529.745 352.858 529.56 352.681 529.332 352.681H526.622C526.394 352.681 526.21 352.858 526.21 353.076V354.319C526.21 354.537 526.394 354.714 526.622 354.714Z" fill="#3F3D56"/>
<path d="M519.552 354.714H522.263C522.491 354.714 522.675 354.537 522.675 354.319V353.076C522.675 352.858 522.491 352.681 522.263 352.681H519.552C519.325 352.681 519.14 352.858 519.14 353.076V354.319C519.14 354.537 519.325 354.714 519.552 354.714Z" fill="#3F3D56"/>
<path d="M512.483 354.714H515.194C515.421 354.714 515.606 354.537 515.606 354.319V353.076C515.606 352.858 515.421 352.681 515.194 352.681H512.483C512.255 352.681 512.071 352.858 512.071 353.076V354.319C512.071 354.537 512.255 354.714 512.483 354.714Z" fill="#3F3D56"/>
<path d="M505.414 354.714H508.124C508.352 354.714 508.536 354.537 508.536 354.319V353.076C508.536 352.858 508.352 352.681 508.124 352.681H505.414C505.186 352.681 505.002 352.858 505.002 353.076V354.319C505.002 354.537 505.186 354.714 505.414 354.714Z" fill="#3F3D56"/>
<path d="M498.344 354.714H501.055C501.283 354.714 501.467 354.537 501.467 354.319V353.076C501.467 352.858 501.283 352.681 501.055 352.681H498.344C498.117 352.681 497.932 352.858 497.932 353.076V354.319C497.932 354.537 498.117 354.714 498.344 354.714Z" fill="#3F3D56"/>
<path d="M491.275 354.714H493.986C494.213 354.714 494.398 354.537 494.398 354.319V353.076C494.398 352.858 494.213 352.681 493.986 352.681H491.275C491.047 352.681 490.863 352.858 490.863 353.076V354.319C490.863 354.537 491.047 354.714 491.275 354.714Z" fill="#3F3D56"/>
<path d="M484.206 354.714H486.916C487.144 354.714 487.328 354.537 487.328 354.319V353.076C487.328 352.858 487.144 352.681 486.916 352.681H484.206C483.978 352.681 483.794 352.858 483.794 353.076V354.319C483.794 354.537 483.978 354.714 484.206 354.714Z" fill="#3F3D56"/>
<path d="M477.136 354.714H479.847C480.074 354.714 480.259 354.537 480.259 354.319V353.076C480.259 352.858 480.074 352.681 479.847 352.681H477.136C476.909 352.681 476.724 352.858 476.724 353.076V354.319C476.724 354.537 476.909 354.714 477.136 354.714Z" fill="#3F3D56"/>
<path d="M470.067 354.714H472.778C473.005 354.714 473.19 354.537 473.19 354.319V353.076C473.19 352.858 473.005 352.681 472.778 352.681H470.067C469.839 352.681 469.655 352.858 469.655 353.076V354.319C469.655 354.537 469.839 354.714 470.067 354.714Z" fill="#3F3D56"/>
<path d="M462.998 354.714H465.708C465.936 354.714 466.12 354.537 466.12 354.319V353.076C466.12 352.858 465.936 352.681 465.708 352.681H462.998C462.77 352.681 462.586 352.858 462.586 353.076V354.319C462.586 354.537 462.77 354.714 462.998 354.714Z" fill="#3F3D56"/>
<path d="M455.928 354.714H458.639C458.866 354.714 459.051 354.537 459.051 354.319V353.076C459.051 352.858 458.866 352.681 458.639 352.681H455.928C455.701 352.681 455.516 352.858 455.516 353.076V354.319C455.516 354.537 455.701 354.714 455.928 354.714Z" fill="#3F3D56"/>
<path d="M448.859 354.714H451.57C451.797 354.714 451.982 354.537 451.982 354.319V353.076C451.982 352.858 451.797 352.681 451.57 352.681H448.859C448.631 352.681 448.447 352.858 448.447 353.076V354.319C448.447 354.537 448.631 354.714 448.859 354.714Z" fill="#3F3D56"/>
<path d="M441.789 354.714H444.5C444.728 354.714 444.912 354.537 444.912 354.319V353.076C444.912 352.858 444.728 352.681 444.5 352.681H441.789C441.562 352.681 441.377 352.858 441.377 353.076V354.319C441.377 354.537 441.562 354.714 441.789 354.714Z" fill="#3F3D56"/>
<path d="M434.72 354.714H437.431C437.658 354.714 437.843 354.537 437.843 354.319V353.076C437.843 352.858 437.658 352.681 437.431 352.681H434.72C434.493 352.681 434.308 352.858 434.308 353.076V354.319C434.308 354.537 434.493 354.714 434.72 354.714Z" fill="#3F3D56"/>
<path d="M427.651 354.714H430.361C430.589 354.714 430.773 354.537 430.773 354.319V353.076C430.773 352.858 430.589 352.681 430.361 352.681H427.651C427.423 352.681 427.239 352.858 427.239 353.076V354.319C427.239 354.537 427.423 354.714 427.651 354.714Z" fill="#3F3D56"/>
<path d="M420.581 354.714H423.292C423.52 354.714 423.704 354.537 423.704 354.319V353.076C423.704 352.858 423.52 352.681 423.292 352.681H420.581C420.354 352.681 420.169 352.858 420.169 353.076V354.319C420.169 354.537 420.354 354.714 420.581 354.714Z" fill="#3F3D56"/>
<path d="M467.946 358.781H495.4C495.627 358.781 495.812 358.604 495.812 358.386V357.142C495.812 356.924 495.627 356.747 495.4 356.747H467.946C467.719 356.747 467.534 356.924 467.534 357.142V358.386C467.534 358.604 467.719 358.781 467.946 358.781Z" fill="#3F3D56"/>
<path d="M438.86 290.246H436.46C435.733 290.246 435.143 290.811 435.143 291.509C435.143 292.206 435.733 292.772 436.46 292.772H438.86C439.588 292.772 440.177 292.206 440.177 291.509C440.177 290.811 439.588 290.246 438.86 290.246Z" fill="white"/>
<path d="M466.306 290.246H463.907C463.179 290.246 462.589 290.811 462.589 291.509C462.589 292.206 463.179 292.772 463.907 292.772H466.306C467.034 292.772 467.624 292.206 467.624 291.509C467.624 290.811 467.034 290.246 466.306 290.246Z" fill="white"/>
<path d="M474.083 290.246H471.683C470.955 290.246 470.365 290.811 470.365 291.509C470.365 292.206 470.955 292.772 471.683 292.772H474.083C474.81 292.772 475.4 292.206 475.4 291.509C475.4 290.811 474.81 290.246 474.083 290.246Z" fill="white"/>
<path d="M458.841 290.035H443.926C443.198 290.035 442.608 290.6 442.608 291.298C442.608 291.996 443.198 292.561 443.926 292.561H458.841C459.568 292.561 460.158 291.996 460.158 291.298C460.158 290.6 459.568 290.035 458.841 290.035Z" fill="white"/>
<path d="M495.436 290.035H480.521C479.793 290.035 479.203 290.6 479.203 291.298C479.203 291.996 479.793 292.561 480.521 292.561H495.436C496.163 292.561 496.753 291.996 496.753 291.298C496.753 290.6 496.163 290.035 495.436 290.035Z" fill="white"/>
<path d="M446.179 295.947H443.779C443.052 295.947 442.462 296.512 442.462 297.21C442.462 297.907 443.052 298.473 443.779 298.473H446.179C446.907 298.473 447.496 297.907 447.496 297.21C447.496 296.512 446.907 295.947 446.179 295.947Z" fill="white"/>
<path d="M473.625 295.947H471.225C470.498 295.947 469.908 296.512 469.908 297.21C469.908 297.907 470.498 298.473 471.225 298.473H473.625C474.353 298.473 474.943 297.907 474.943 297.21C474.943 296.512 474.353 295.947 473.625 295.947Z" fill="white"/>
<path d="M481.402 295.947H479.002C478.274 295.947 477.685 296.512 477.685 297.21C477.685 297.907 478.274 298.473 479.002 298.473H481.402C482.129 298.473 482.719 297.907 482.719 297.21C482.719 296.512 482.129 295.947 481.402 295.947Z" fill="white"/>
<path d="M466.16 295.736H451.245C450.517 295.736 449.927 296.302 449.927 296.999C449.927 297.697 450.517 298.262 451.245 298.262H466.16C466.887 298.262 467.477 297.697 467.477 296.999C467.477 296.302 466.887 295.736 466.16 295.736Z" fill="white"/>
<path d="M502.755 295.736H487.84C487.112 295.736 486.522 296.302 486.522 296.999C486.522 297.697 487.112 298.262 487.84 298.262H502.755C503.482 298.262 504.072 297.697 504.072 296.999C504.072 296.302 503.482 295.736 502.755 295.736Z" fill="white"/>
<path d="M453.498 301.648H451.098C450.371 301.648 449.781 302.214 449.781 302.911C449.781 303.609 450.371 304.174 451.098 304.174H453.498C454.226 304.174 454.815 303.609 454.815 302.911C454.815 302.214 454.226 301.648 453.498 301.648Z" fill="white"/>
<path d="M480.944 301.648H478.544C477.817 301.648 477.227 302.214 477.227 302.911C477.227 303.609 477.817 304.174 478.544 304.174H480.944C481.672 304.174 482.262 303.609 482.262 302.911C482.262 302.214 481.672 301.648 480.944 301.648Z" fill="white"/>
<path d="M488.721 301.648H486.321C485.593 301.648 485.004 302.214 485.004 302.911C485.004 303.609 485.593 304.174 486.321 304.174H488.721C489.448 304.174 490.038 303.609 490.038 302.911C490.038 302.214 489.448 301.648 488.721 301.648Z" fill="white"/>
<path d="M473.479 301.438H458.564C457.836 301.438 457.246 302.003 457.246 302.701C457.246 303.398 457.836 303.964 458.564 303.964H473.479C474.206 303.964 474.796 303.398 474.796 302.701C474.796 302.003 474.206 301.438 473.479 301.438Z" fill="white"/>
<path d="M510.074 301.438H495.159C494.431 301.438 493.841 302.003 493.841 302.701C493.841 303.398 494.431 303.964 495.159 303.964H510.074C510.801 303.964 511.391 303.398 511.391 302.701C511.391 302.003 510.801 301.438 510.074 301.438Z" fill="white"/>
<path d="M460.817 307.349H458.417C457.69 307.349 457.1 307.915 457.1 308.612C457.1 309.31 457.69 309.875 458.417 309.875H460.817C461.545 309.875 462.134 309.31 462.134 308.612C462.134 307.915 461.545 307.349 460.817 307.349Z" fill="white"/>
<path d="M488.263 307.349H485.864C485.136 307.349 484.546 307.915 484.546 308.612C484.546 309.31 485.136 309.875 485.864 309.875H488.263C488.991 309.875 489.581 309.31 489.581 308.612C489.581 307.915 488.991 307.349 488.263 307.349Z" fill="white"/>
<path d="M496.04 307.349H493.64C492.912 307.349 492.323 307.915 492.323 308.612C492.323 309.31 492.912 309.875 493.64 309.875H496.04C496.767 309.875 497.357 309.31 497.357 308.612C497.357 307.915 496.767 307.349 496.04 307.349Z" fill="white"/>
<path d="M480.798 307.139H465.883C465.155 307.139 464.565 307.704 464.565 308.402C464.565 309.099 465.155 309.665 465.883 309.665H480.798C481.525 309.665 482.115 309.099 482.115 308.402C482.115 307.704 481.525 307.139 480.798 307.139Z" fill="white"/>
<path d="M466.306 330.02H463.907C463.179 330.02 462.589 330.586 462.589 331.283C462.589 331.981 463.179 332.546 463.907 332.546H466.306C467.034 332.546 467.624 331.981 467.624 331.283C467.624 330.586 467.034 330.02 466.306 330.02Z" fill="white"/>
<path d="M474.083 330.02H471.683C470.955 330.02 470.365 330.586 470.365 331.283C470.365 331.981 470.955 332.546 471.683 332.546H474.083C474.81 332.546 475.4 331.981 475.4 331.283C475.4 330.586 474.81 330.02 474.083 330.02Z" fill="white"/>
<path d="M495.436 330.231H480.521C479.793 330.231 479.203 330.796 479.203 331.494C479.203 332.191 479.793 332.757 480.521 332.757H495.436C496.163 332.757 496.753 332.191 496.753 331.494C496.753 330.796 496.163 330.231 495.436 330.231Z" fill="white"/>
<path d="M438.86 330.02H436.46C435.733 330.02 435.143 330.586 435.143 331.283C435.143 331.981 435.733 332.546 436.46 332.546H438.86C439.588 332.546 440.177 331.981 440.177 331.283C440.177 330.586 439.588 330.02 438.86 330.02Z" fill="white"/>
<path d="M458.841 330.231H443.926C443.198 330.231 442.608 330.796 442.608 331.494C442.608 332.191 443.198 332.757 443.926 332.757H458.841C459.568 332.757 460.158 332.191 460.158 331.494C460.158 330.796 459.568 330.231 458.841 330.231Z" fill="white"/>
<path d="M446.179 324.319H443.779C443.052 324.319 442.462 324.884 442.462 325.582C442.462 326.279 443.052 326.845 443.779 326.845H446.179C446.907 326.845 447.496 326.279 447.496 325.582C447.496 324.884 446.907 324.319 446.179 324.319Z" fill="white"/>
<path d="M473.625 324.319H471.225C470.498 324.319 469.908 324.884 469.908 325.582C469.908 326.279 470.498 326.845 471.225 326.845H473.625C474.353 326.845 474.943 326.279 474.943 325.582C474.943 324.884 474.353 324.319 473.625 324.319Z" fill="white"/>
<path d="M481.402 324.319H479.002C478.274 324.319 477.685 324.884 477.685 325.582C477.685 326.279 478.274 326.845 479.002 326.845H481.402C482.129 326.845 482.719 326.279 482.719 325.582C482.719 324.884 482.129 324.319 481.402 324.319Z" fill="white"/>
<path d="M466.16 324.529H451.245C450.517 324.529 449.927 325.095 449.927 325.792C449.927 326.49 450.517 327.055 451.245 327.055H466.16C466.887 327.055 467.477 326.49 467.477 325.792C467.477 325.095 466.887 324.529 466.16 324.529Z" fill="white"/>
<path d="M453.498 318.618H451.098C450.371 318.618 449.781 319.183 449.781 319.881C449.781 320.578 450.371 321.144 451.098 321.144H453.498C454.226 321.144 454.815 320.578 454.815 319.881C454.815 319.183 454.226 318.618 453.498 318.618Z" fill="white"/>
<path d="M480.944 318.618H478.544C477.817 318.618 477.227 319.183 477.227 319.881C477.227 320.578 477.817 321.144 478.544 321.144H480.944C481.672 321.144 482.262 320.578 482.262 319.881C482.262 319.183 481.672 318.618 480.944 318.618Z" fill="white"/>
<path d="M488.721 318.618H486.321C485.593 318.618 485.004 319.183 485.004 319.881C485.004 320.578 485.593 321.144 486.321 321.144H488.721C489.448 321.144 490.038 320.578 490.038 319.881C490.038 319.183 489.448 318.618 488.721 318.618Z" fill="white"/>
<path d="M473.479 318.828H458.564C457.836 318.828 457.246 319.394 457.246 320.091C457.246 320.789 457.836 321.354 458.564 321.354H473.479C474.206 321.354 474.796 320.789 474.796 320.091C474.796 319.394 474.206 318.828 473.479 318.828Z" fill="white"/>
<path d="M460.817 312.916H458.417C457.69 312.916 457.1 313.482 457.1 314.179C457.1 314.877 457.69 315.442 458.417 315.442H460.817C461.545 315.442 462.134 314.877 462.134 314.179C462.134 313.482 461.545 312.916 460.817 312.916Z" fill="white"/>
<path d="M488.263 312.916H485.864C485.136 312.916 484.546 313.482 484.546 314.179C484.546 314.877 485.136 315.442 485.864 315.442H488.263C488.991 315.442 489.581 314.877 489.581 314.179C489.581 313.482 488.991 312.916 488.263 312.916Z" fill="white"/>
<path d="M496.04 312.916H493.64C492.912 312.916 492.323 313.482 492.323 314.179C492.323 314.877 492.912 315.442 493.64 315.442H496.04C496.767 315.442 497.357 314.877 497.357 314.179C497.357 313.482 496.767 312.916 496.04 312.916Z" fill="white"/>
<path d="M480.798 313.127H465.883C465.155 313.127 464.565 313.692 464.565 314.39C464.565 315.087 465.155 315.653 465.883 315.653H480.798C481.525 315.653 482.115 315.087 482.115 314.39C482.115 313.692 481.525 313.127 480.798 313.127Z" fill="white"/>
<path d="M426.101 396.837L414.836 379.764L450.197 352.739L464.793 337.236C466.689 335.222 469.103 333.72 471.794 332.881C474.486 332.042 477.36 331.894 480.129 332.453C482.898 333.013 485.466 334.259 487.575 336.067C489.685 337.876 491.262 340.184 492.15 342.76C493.466 346.578 493.183 350.736 491.361 354.358C489.539 357.979 486.321 360.781 482.386 362.171L459.306 370.322L426.101 396.837Z" fill="#FFB6B6"/>
<path d="M161.768 273.048V356.026H222.402V273.048C222.403 272.451 222.205 271.869 221.836 271.389C221.466 270.908 220.946 270.554 220.352 270.378C220.071 270.289 219.778 270.245 219.482 270.248H164.696C164.312 270.248 163.932 270.319 163.577 270.46C163.222 270.6 162.899 270.806 162.627 271.066C162.355 271.326 162.139 271.635 161.992 271.975C161.844 272.315 161.768 272.679 161.768 273.048ZM185.431 301.559C185.447 299.924 186.136 298.36 187.348 297.208C188.56 296.057 190.197 295.411 191.904 295.411C193.61 295.411 195.247 296.057 196.459 297.208C197.672 298.36 198.361 299.924 198.376 301.559V311.187C198.368 312.828 197.682 314.398 196.469 315.555C195.256 316.712 193.615 317.361 191.904 317.361C190.193 317.361 188.551 316.712 187.338 315.555C186.125 314.398 185.44 312.828 185.431 311.187V301.559Z" fill="#2F2E41"/>
<path d="M161.582 353.373V361.374C161.584 361.789 161.755 362.186 162.06 362.48C162.365 362.774 162.779 362.941 163.211 362.944H220.959C221.392 362.942 221.806 362.776 222.112 362.482C222.417 362.187 222.588 361.789 222.588 361.374V353.373H161.582Z" fill="#3F3D56"/>
<path d="M66.3814 148.029V299.537C66.383 301.468 67.1837 303.319 68.6077 304.684C70.0317 306.049 71.9627 306.817 73.9765 306.818H308.16C310.174 306.817 312.105 306.049 313.529 304.684C314.953 303.319 315.753 301.468 315.755 299.537V148.029C315.75 146.1 314.948 144.252 313.524 142.888C312.101 141.525 310.172 140.758 308.16 140.756H73.9765C71.9644 140.758 70.0353 141.525 68.6118 142.888C67.1882 144.252 66.3862 146.1 66.3814 148.029Z" fill="#3F3D56"/>
<path d="M71.8752 149.914V297.668C71.8771 298.699 72.3053 299.688 73.0662 300.418C73.827 301.147 74.8584 301.558 75.9344 301.559H306.21C307.286 301.558 308.318 301.147 309.079 300.418C309.839 299.688 310.268 298.699 310.27 297.668V149.914C310.269 148.881 309.842 147.891 309.081 147.16C308.32 146.429 307.288 146.017 306.21 146.015H75.9344C74.8571 146.017 73.8247 146.429 73.0638 147.16C72.3028 147.891 71.8754 148.881 71.8752 149.914Z" fill="white"/>
<path d="M114.611 362.402C114.845 362.684 115.143 362.911 115.482 363.066C115.821 363.222 116.192 363.302 116.568 363.3H253.568C253.942 363.3 254.312 363.219 254.65 363.064C254.988 362.91 255.286 362.685 255.522 362.406C255.758 362.127 255.927 361.801 256.015 361.452C256.103 361.103 256.109 360.739 256.032 360.387L253.905 350.703C253.817 350.308 253.627 349.94 253.353 349.634C253.079 349.327 252.729 349.091 252.336 348.947C252.051 348.84 251.747 348.785 251.441 348.785H118.687C118.38 348.785 118.077 348.84 117.792 348.947C117.398 349.091 117.049 349.327 116.774 349.634C116.5 349.94 116.31 350.308 116.222 350.703L114.096 360.387C114.02 360.739 114.027 361.102 114.116 361.45C114.205 361.799 114.374 362.124 114.611 362.402Z" fill="#2F2E41"/>
<path d="M298.737 166.368H83.2689C83.0449 166.364 82.8318 166.275 82.6752 166.121C82.5185 165.968 82.4308 165.762 82.4308 165.547C82.4308 165.332 82.5185 165.126 82.6752 164.972C82.8318 164.819 83.0449 164.73 83.2689 164.725H298.737C298.961 164.73 299.174 164.819 299.331 164.972C299.487 165.126 299.575 165.332 299.575 165.547C299.575 165.762 299.487 165.968 299.331 166.121C299.174 166.275 298.961 166.364 298.737 166.368Z" fill="#3F3D56"/>
<path d="M97.9361 160.531C100.709 160.531 102.958 158.327 102.958 155.609C102.958 152.891 100.709 150.688 97.9361 150.688C95.1627 150.688 92.9145 152.891 92.9145 155.609C92.9145 158.327 95.1627 160.531 97.9361 160.531Z" fill="#3F3D56"/>
<path d="M115.283 160.531C118.057 160.531 120.305 158.327 120.305 155.609C120.305 152.891 118.057 150.688 115.283 150.688C112.51 150.688 110.262 152.891 110.262 155.609C110.262 158.327 112.51 160.531 115.283 160.531Z" fill="#3F3D56"/>
<path d="M132.631 160.531C135.404 160.531 137.652 158.327 137.652 155.609C137.652 152.891 135.404 150.688 132.631 150.688C129.857 150.688 127.609 152.891 127.609 155.609C127.609 158.327 129.857 160.531 132.631 160.531Z" fill="#3F3D56"/>
<path d="M288.291 151.905H275.97C275.727 151.91 275.495 152.007 275.325 152.174C275.154 152.341 275.059 152.565 275.059 152.799C275.059 153.032 275.154 153.257 275.325 153.424C275.495 153.591 275.727 153.687 275.97 153.693H288.291C288.536 153.689 288.77 153.594 288.942 153.427C289.114 153.259 289.211 153.034 289.211 152.799C289.211 152.564 289.114 152.338 288.942 152.171C288.77 152.004 288.536 151.908 288.291 151.905Z" fill="#3F3D56"/>
<path d="M288.291 155.262H275.97C275.726 155.268 275.494 155.364 275.324 155.531C275.153 155.698 275.058 155.923 275.058 156.156C275.058 156.39 275.153 156.615 275.324 156.782C275.494 156.949 275.726 157.045 275.97 157.05H288.291C288.537 157.048 288.771 156.952 288.943 156.785C289.116 156.617 289.213 156.392 289.213 156.156C289.213 155.921 289.116 155.695 288.943 155.528C288.771 155.361 288.537 155.265 288.291 155.262Z" fill="#3F3D56"/>
<path d="M288.291 158.62H275.97C275.727 158.625 275.495 158.722 275.325 158.889C275.154 159.056 275.059 159.28 275.059 159.514C275.059 159.748 275.154 159.972 275.325 160.139C275.495 160.306 275.727 160.403 275.97 160.408H288.291C288.536 160.405 288.77 160.309 288.942 160.142C289.114 159.974 289.211 159.749 289.211 159.514C289.211 159.279 289.114 159.054 288.942 158.886C288.77 158.719 288.536 158.623 288.291 158.62Z" fill="#3F3D56"/>
<path d="M585.328 356.884C585.7 357.922 586.405 358.82 587.342 359.45C588.28 360.08 589.401 360.408 590.546 360.389L612.902 359.837C614.055 359.815 615.17 359.437 616.079 358.758C616.989 358.078 617.645 357.135 617.949 356.069L621.113 323.635C622.236 324.123 623.458 324.364 624.69 324.34C625.76 324.314 626.815 324.087 627.793 323.67C628.772 323.254 629.655 322.656 630.393 321.913C631.131 321.169 631.709 320.293 632.093 319.335C632.478 318.377 632.663 317.356 632.636 316.33C632.609 315.303 632.371 314.292 631.937 313.354C631.502 312.416 630.88 311.569 630.104 310.861C629.328 310.154 628.414 309.6 627.415 309.231C626.416 308.862 625.351 308.686 624.28 308.711C623.788 308.71 623.297 308.759 622.815 308.858C622.291 308.314 621.655 307.882 620.947 307.589C620.238 307.296 619.473 307.149 618.702 307.156L584.312 308.007C584.027 308.018 583.743 308.051 583.464 308.108C582.71 308.243 581.995 308.531 581.366 308.953C580.738 309.375 580.211 309.922 579.822 310.555C579.432 311.189 579.189 311.895 579.107 312.626C579.026 313.358 579.11 314.097 579.352 314.795L585.328 356.884ZM621.762 321.433L624.013 313.704C624.269 312.812 624.275 311.87 624.03 310.974C624.14 310.974 624.236 310.924 624.345 310.924C625.889 310.893 627.382 311.451 628.498 312.474C629.613 313.498 630.26 314.903 630.296 316.383C630.332 317.863 629.755 319.296 628.69 320.368C627.626 321.44 626.162 322.064 624.618 322.103C623.62 322.133 622.633 321.901 621.762 321.433Z" fill="#2F2E41"/>
<path d="M583.464 308.108C584.197 312.125 592.434 314.948 602.339 314.457C611.447 314.055 618.894 310.989 620.258 307.355C619.754 307.212 619.228 307.145 618.702 307.156L584.313 308.007C584.027 308.017 583.743 308.051 583.464 308.108Z" fill="#3F3D56"/>
<path d="M604.154 339.062C604.199 339.051 604.242 339.033 604.281 339.008L609.137 335.961C609.195 335.925 609.243 335.875 609.277 335.816C609.31 335.757 609.328 335.69 609.328 335.623C609.328 335.556 609.31 335.49 609.277 335.431C609.244 335.372 609.195 335.322 609.137 335.285L604.09 332.116C604.044 332.087 603.992 332.066 603.938 332.056C603.883 332.046 603.827 332.046 603.773 332.057C603.718 332.068 603.667 332.089 603.621 332.119C603.575 332.149 603.536 332.187 603.505 332.232C603.475 332.276 603.454 332.326 603.443 332.378C603.433 332.431 603.434 332.484 603.445 332.536C603.456 332.589 603.479 332.638 603.51 332.682C603.541 332.726 603.581 332.763 603.628 332.792L608.135 335.623L603.82 338.331C603.736 338.384 603.675 338.463 603.646 338.555C603.618 338.646 603.624 338.745 603.664 338.832C603.704 338.92 603.776 338.991 603.865 339.033C603.955 339.075 604.057 339.085 604.154 339.062Z" fill="#10F5CC"/>
<path d="M596.486 339.401C596.567 339.381 596.641 339.339 596.697 339.278C596.753 339.218 596.789 339.144 596.8 339.064C596.812 338.984 596.798 338.903 596.761 338.83C596.724 338.758 596.665 338.698 596.592 338.658L592.117 336.198L596.442 333.118C596.487 333.086 596.524 333.046 596.553 333.001C596.581 332.955 596.6 332.905 596.608 332.852C596.616 332.8 596.613 332.746 596.6 332.695C596.586 332.643 596.562 332.595 596.529 332.552C596.496 332.509 596.455 332.474 596.407 332.446C596.36 332.419 596.307 332.401 596.252 332.393C596.198 332.386 596.142 332.388 596.088 332.401C596.034 332.414 595.984 332.437 595.939 332.469L591.097 335.918C591.04 335.958 590.995 336.01 590.966 336.071C590.936 336.132 590.923 336.199 590.927 336.266C590.931 336.333 590.952 336.398 590.989 336.455C591.026 336.512 591.077 336.56 591.138 336.593L596.172 339.36C596.267 339.412 596.38 339.427 596.486 339.401Z" fill="#10F5CC"/>
<path d="M603.671 341.732C603.712 341.722 603.751 341.706 603.787 341.685C603.834 341.657 603.875 341.621 603.908 341.578C603.941 341.535 603.965 341.487 603.978 341.435C603.991 341.384 603.993 341.33 603.985 341.277C603.976 341.225 603.957 341.174 603.928 341.129L597.046 330.281C596.987 330.189 596.894 330.124 596.785 330.098C596.676 330.073 596.561 330.091 596.466 330.146C596.37 330.202 596.302 330.292 596.275 330.396C596.249 330.5 596.267 330.61 596.325 330.702L603.207 341.55C603.254 341.624 603.325 341.682 603.408 341.714C603.492 341.747 603.584 341.753 603.671 341.732Z" fill="#10F5CC"/>
<path d="M216.748 211.029H179.455C177.934 211.029 176.7 212.211 176.7 213.67V217.163C176.7 218.622 177.934 219.804 179.455 219.804H216.748C218.269 219.804 219.502 218.622 219.502 217.163V213.67C219.502 212.211 218.269 211.029 216.748 211.029Z" fill="#10F5CC"/>
<path d="M238.485 228.579H157.717C156.196 228.579 154.963 229.761 154.963 231.22V234.713C154.963 236.172 156.196 237.354 157.717 237.354H238.485C240.007 237.354 241.24 236.172 241.24 234.713V231.22C241.24 229.761 240.007 228.579 238.485 228.579Z" fill="#E6E6E6"/>
<path d="M238.485 246.129H157.717C156.196 246.129 154.963 247.311 154.963 248.77V252.263C154.963 253.722 156.196 254.904 157.717 254.904H238.485C240.007 254.904 241.24 253.722 241.24 252.263V248.77C241.24 247.311 240.007 246.129 238.485 246.129Z" fill="#E6E6E6"/>
<path d="M245.332 304.897L245.515 305.451L245.525 305.469L251.031 321.52L257.366 340.016L269.284 374.775L269.4 380.174V380.193L270.285 423.627L267.83 429.516L270.593 439.17C270.593 439.17 269.323 424.577 262.507 432.957C258.646 437.72 254.131 442.593 250.425 447.162C255.826 449.257 261.313 451.152 266.887 452.847C268.09 453.217 269.303 453.567 270.516 453.918C270.776 453.992 271.036 454.066 271.296 454.14C289.773 459.378 308.875 462.322 328.134 462.899C329.135 462.926 330.117 462.945 331.07 462.963C331.407 462.972 331.734 462.982 332.062 462.982C333.14 462.991 334.208 463 335.287 463C337.462 463 339.628 462.969 341.785 462.908C357.746 462.476 373.614 460.419 389.121 456.77C389.015 450.632 388.726 443.461 388.312 435.8C388.119 432.044 383.797 427.973 383.537 424.042C383.354 421.088 387.234 418.31 387.032 415.31C385.722 396.842 384.086 403.931 382.873 390.853C382.748 389.57 382.632 388.342 382.526 387.17C381.746 378.771 381.207 373.52 381.207 373.52L386.387 342.222L394.521 293.083L393.896 292.095L393.193 291.763L350.285 271.403L347.956 265.68C347.277 264.031 346.099 262.615 344.574 261.614C343.049 260.612 341.246 260.071 339.397 260.059L311.132 259.948C309.666 259.942 308.218 260.271 306.911 260.908C305.603 261.546 304.473 262.473 303.614 263.613L295.96 273.774L245.332 304.897Z" fill="#3F3D56"/>
<path d="M275.802 367.04L269.4 380.174L265.029 389.145L257.51 426.886L253.746 430.716L250.521 417.156L216.767 424.342C215.66 418.444 216.471 424.541 215.787 418.071C215.98 417.887 216.182 417.702 216.384 417.517C216.923 417.037 217.375 416.585 217.366 416.151C216.981 393.834 218.136 355.854 227.782 332.844C229.293 329.087 231.285 325.525 233.712 322.239C233.905 321.99 234.088 321.741 234.271 321.492C238.718 315.52 241.53 309.641 245.515 305.46V305.451C245.54 305.432 245.562 305.41 245.582 305.386C245.597 305.379 245.61 305.37 245.621 305.358L273 291.44L274.175 323.079L275.012 345.821L275.802 367.04Z" fill="#3F3D56"/>
<path d="M374.526 370.771L382.522 387.175L385.313 392.887L392.83 430.624L396.582 434.445L399.814 420.889L401.333 420.59L428.725 415.151L436.709 439.461C438.508 436.586 439.217 433.204 438.716 429.887C438.214 426.569 436.533 423.519 433.957 421.252C433.411 420.779 432.957 420.319 432.97 419.883C433.424 393.634 431.75 345.704 416.626 325.977C411.822 319.717 408.941 313.481 404.747 309.125C404.734 309.113 404.734 309.1 404.721 309.1L394.518 293.082L393.894 292.099L393.193 291.763L374.526 370.771Z" fill="#3F3D56"/>
<path d="M326.081 252.237C346.849 252.237 363.684 236.096 363.684 216.186C363.684 196.275 346.849 180.135 326.081 180.135C305.314 180.135 288.478 196.275 288.478 216.186C288.478 236.096 305.314 252.237 326.081 252.237Z" fill="#FFB6B6"/>
<path d="M376.906 191.004C376.615 190.705 376.263 190.466 375.873 190.301C375.483 190.136 375.062 190.047 374.636 190.041L375.201 188.536C375.386 188.062 375.436 187.55 375.346 187.051C375.256 186.553 375.029 186.086 374.689 185.699C374.349 185.312 373.908 185.019 373.411 184.849C372.913 184.68 372.378 184.64 371.86 184.734L369.8 185.114L369.994 183.795C370.069 183.304 370.009 182.803 369.82 182.341C369.631 181.879 369.32 181.472 368.917 181.16C368.514 180.848 368.034 180.642 367.523 180.562C367.012 180.482 366.488 180.531 366.003 180.704C365.561 180.871 365.087 180.941 364.614 180.909C364.141 180.876 363.681 180.743 363.269 180.518C362.854 180.301 362.495 179.999 362.215 179.634C361.935 179.269 361.742 178.851 361.648 178.407L360.931 175.089L360.855 174.911C357.361 169.329 350.644 165.267 342.424 163.779C335.107 162.444 327.605 163.123 320.373 163.762C317.504 164.021 314.263 164.313 311.563 165.898C309.267 167.258 307.326 169.976 307.723 172.719C300.592 170.623 292.946 174.806 289.157 180.081C284.667 186.36 283.933 194.224 283.815 200.373C283.494 214.92 286.625 226.822 293.098 235.754C293.571 236.401 293.689 237.752 294.625 238.206L294.431 237.906C295.478 238.408 296.541 239.217 296.144 240.083C295.005 242.575 302.575 248.084 307.909 249.905C317.639 253.23 330.576 252.947 339.673 251.749L339.994 249.686C343.277 249.257 345.589 248.44 346.239 247.162C347.386 246.223 348.365 245.382 349.218 244.605L349.226 244.597C349.243 244.581 349.277 244.557 349.294 244.541C353.403 240.762 354.357 238.61 354.787 235.333C355.201 232.121 354.467 228.861 353.716 225.924C369.53 228.27 347.488 209.775 362.222 206.198C362.391 206.149 362.563 206.108 362.737 206.077C363.167 205.98 363.598 205.883 364.011 205.77C366.004 205.251 367.913 204.469 369.682 203.448C373.8 201.045 375.159 197.857 377.286 194.265C377.593 193.753 377.721 193.161 377.653 192.575C377.585 191.988 377.323 191.438 376.906 191.004Z" fill="#2F2E41"/>
<path d="M459.077 373.337C459.068 374.753 459.052 376.735 458.984 379.187C458.976 379.527 458.967 379.875 458.959 380.231C458.849 384.737 458.739 388.516 458.562 392.715C458.554 393.006 458.545 393.289 458.528 393.58C458.292 399.438 457.921 406.259 457.279 417.06C456.089 437.012 454.013 419.803 451.929 426.801C451.828 427.149 451.718 427.562 451.617 428.047C451.301 429.808 450.769 431.528 450.03 433.169C448.925 433.8 447.785 434.406 446.663 435.013C443.465 436.72 440.216 438.363 436.941 439.924C435.102 440.798 433.254 441.656 431.397 442.481C431.102 442.61 430.815 442.74 430.528 442.861C421.02 447.077 411.222 450.662 401.202 453.59C399.244 454.156 397.295 454.706 395.32 455.216C393.261 455.766 391.202 456.284 389.117 456.769C373.611 460.419 357.743 462.478 341.783 462.91C339.631 462.975 337.462 462.999 335.285 462.999C334.205 462.999 333.141 462.991 332.061 462.983C331.732 462.983 331.403 462.975 331.074 462.967C330.12 462.943 329.133 462.926 328.137 462.902C308.878 462.326 289.776 459.381 271.3 454.14L270.515 453.921C269.3 453.565 268.093 453.217 266.886 452.845C261.317 451.154 255.828 449.261 250.422 447.166C246.295 445.572 242.216 443.862 238.185 442.036C238.148 442.026 238.114 442.01 238.084 441.987C237.24 441.615 236.388 441.227 235.544 440.83C235.434 440.774 235.316 440.717 235.198 440.661C232.05 439.188 228.936 437.645 225.856 436.033C223.265 430.329 219.619 429.236 217.358 424.22C216.699 422.73 216.224 421.171 215.94 419.576C215.94 419.56 215.932 419.544 215.932 419.519C216.168 422.529 214.927 414.18 215.923 419.487C215.915 419.39 215.906 419.285 215.898 419.163C215.872 418.872 215.839 418.516 215.788 418.071C212.894 390.975 213.079 359.988 211.822 334.453C211.737 332.803 211.65 331.222 211.56 329.712C211.535 329.21 211.501 328.717 211.467 328.231C211.526 328.086 211.594 327.932 211.67 327.786C211.686 327.744 211.706 327.704 211.729 327.665C211.754 327.615 211.782 327.566 211.813 327.519C211.83 327.495 211.855 327.463 211.872 327.438C211.885 327.411 211.899 327.384 211.915 327.358C211.991 327.244 212.075 327.123 212.168 327.01C212.21 326.961 212.244 326.921 212.286 326.88C212.315 326.839 212.349 326.801 212.387 326.767C212.413 326.728 212.444 326.693 212.48 326.662C212.514 326.629 212.547 326.589 212.59 326.549C212.608 326.523 212.631 326.501 212.657 326.484C212.724 326.41 212.797 326.343 212.877 326.282C213.178 326.016 213.499 325.773 213.839 325.553C213.957 325.481 214.083 325.408 214.202 325.327C215.052 324.839 215.948 324.427 216.877 324.097C217.197 323.984 217.518 323.879 217.864 323.765C217.991 323.733 218.109 323.693 218.235 323.652C218.421 323.595 218.607 323.539 218.801 323.498C219.763 323.223 220.801 322.989 221.923 322.77C222.058 322.746 222.202 322.722 222.345 322.689C222.548 322.649 222.759 322.616 222.97 322.584C223.257 322.536 223.552 322.487 223.847 322.438C226.354 322.058 229.198 321.775 232.337 321.589C232.632 321.573 232.928 321.557 233.223 321.54C233.569 321.524 233.915 321.508 234.27 321.492C234.565 321.476 234.869 321.468 235.173 321.459C235.468 321.443 235.772 321.435 236.084 321.427C236.936 321.403 237.814 321.379 238.708 321.362C241.257 321.314 243.941 321.33 246.759 321.387C248.067 321.419 249.401 321.451 250.768 321.508C250.861 321.508 250.945 321.516 251.029 321.516C252.219 321.557 253.418 321.605 254.65 321.67C255.511 321.71 256.38 321.751 257.249 321.799C258.068 321.848 258.895 321.896 259.73 321.953C260.38 321.985 261.03 322.034 261.688 322.074C262.245 322.115 262.802 322.155 263.359 322.188L264.118 322.236C264.532 322.269 264.945 322.293 265.367 322.333C266.296 322.406 267.224 322.479 268.169 322.552C269.106 322.633 270.059 322.714 271.013 322.794C271.967 322.875 272.929 322.964 273.891 323.053C273.992 323.061 274.085 323.069 274.178 323.078C275.055 323.167 275.933 323.248 276.819 323.337C277.022 323.353 277.233 323.369 277.435 323.393C278.28 323.475 279.141 323.57 279.994 323.657C280.256 323.684 280.516 323.71 280.778 323.737C281.446 323.807 282.104 323.868 282.777 323.943C283.663 324.04 284.566 324.129 285.444 324.243C286.127 324.315 286.811 324.388 287.494 324.469C288.566 324.591 289.655 324.72 290.743 324.858C291.157 324.906 291.57 324.955 291.984 325.011C295.09 325.383 298.229 325.796 301.419 326.225C306.254 326.88 311.166 327.592 316.111 328.361C321.065 329.13 326.047 329.941 331.057 330.796C332.323 331.015 333.588 331.233 334.863 331.46C335.437 331.565 336.01 331.67 336.584 331.775C337.563 331.945 338.542 332.123 339.521 332.301C340.5 332.479 341.479 332.657 342.458 332.843C343.622 333.062 344.795 333.28 345.96 333.498C353.631 334.955 361.26 336.508 368.703 338.134C369.927 338.401 371.151 338.677 372.366 338.944C374.796 339.486 377.204 340.036 379.59 340.594C380.248 340.74 380.898 340.893 381.547 341.047C383.168 341.435 384.788 341.824 386.383 342.22L386.662 342.293C387.835 342.568 388.982 342.851 390.13 343.143C392.839 343.822 395.503 344.51 398.122 345.206C399.86 345.667 401.579 346.134 403.278 346.605C405.818 347.309 408.308 348.021 410.73 348.741C411.329 348.919 411.928 349.097 412.519 349.267C414.291 349.793 416.038 350.327 417.734 350.861C419.084 351.282 420.401 351.711 421.7 352.14C423 352.568 424.274 352.997 425.523 353.426C426.325 353.701 427.118 353.992 427.911 354.267C429.051 354.672 430.173 355.077 431.27 355.481C431.608 355.602 431.937 355.732 432.266 355.853C432.477 355.942 432.68 356.015 432.882 356.096C433.279 356.25 433.684 356.395 434.072 356.549C434.469 356.695 434.857 356.848 435.245 357.01C435.625 357.156 436.013 357.31 436.384 357.463C436.764 357.609 437.135 357.763 437.507 357.924C437.819 358.046 438.123 358.175 438.418 358.305C439.017 358.556 439.616 358.806 440.199 359.065C440.486 359.195 440.773 359.316 441.06 359.446L441.718 359.737C441.811 359.785 441.903 359.826 441.996 359.866C442.207 359.963 442.427 360.069 442.638 360.166C443.127 360.384 443.608 360.619 444.081 360.837C444.714 361.145 445.33 361.452 445.92 361.751C446.52 362.059 447.102 362.366 447.659 362.666C447.752 362.714 447.836 362.763 447.929 362.811C448.055 362.876 448.182 362.949 448.309 363.014C448.739 363.248 449.153 363.491 449.566 363.726C450.376 364.203 451.144 364.672 451.861 365.141C452.022 365.247 452.174 365.352 452.334 365.449C452.866 365.813 453.372 366.169 453.845 366.533C453.845 366.541 453.845 366.541 453.853 366.541C454.013 366.654 454.165 366.776 454.317 366.889C454.444 367.002 454.579 367.099 454.705 367.213C455.144 367.577 455.549 367.925 455.921 368.281C456.045 368.39 456.163 368.507 456.275 368.629C456.324 368.668 456.369 368.711 456.41 368.758C456.579 368.92 456.731 369.082 456.874 369.243C456.896 369.266 456.916 369.29 456.933 369.316C457.136 369.543 457.322 369.769 457.499 369.996C457.583 370.109 457.676 370.222 457.752 370.336C457.853 370.473 457.954 370.619 458.039 370.756C458.115 370.87 458.182 370.991 458.25 371.104C458.429 371.396 458.581 371.702 458.706 372.019C458.8 372.233 458.877 372.455 458.933 372.682C458.997 372.897 459.045 373.116 459.077 373.337Z" fill="#2F2E41"/>
<path opacity="0.2" d="M459.077 373.337C459.068 374.753 459.052 376.736 458.984 379.187C458.976 379.527 458.959 379.875 458.95 380.231C458.866 383.669 458.739 387.917 458.562 392.715C458.554 393.006 458.545 393.289 458.528 393.58C458.292 399.438 457.921 406.259 457.279 417.06C456.089 437.012 454.013 419.803 451.929 426.801C446.14 423.387 439.794 419.811 433.009 416.137C431.785 415.474 430.55 414.808 429.304 414.139C415.734 406.882 400.577 399.276 384.754 391.744C384.13 391.445 383.497 391.145 382.872 390.854C346.627 373.677 307.065 356.97 275.013 345.821C268.827 343.669 262.92 341.727 257.367 340.02C245.671 336.435 235.561 333.927 227.78 332.843C219.678 331.71 214.083 332.115 211.822 334.453C211.737 332.803 211.65 331.222 211.56 329.712C211.526 329.21 211.492 328.717 211.459 328.231C211.511 328.098 211.578 327.971 211.644 327.843C211.653 327.824 211.66 327.805 211.67 327.786C211.686 327.744 211.706 327.704 211.729 327.665C211.754 327.615 211.782 327.566 211.813 327.519C211.841 327.462 211.875 327.408 211.914 327.358C211.99 327.244 212.075 327.123 212.168 327.01C212.236 326.925 212.309 326.844 212.387 326.767C212.413 326.728 212.444 326.693 212.48 326.662C212.514 326.629 212.547 326.589 212.59 326.548C212.608 326.523 212.631 326.501 212.657 326.484C212.724 326.41 212.797 326.343 212.877 326.282C213.178 326.016 213.499 325.772 213.839 325.553C213.957 325.481 214.083 325.408 214.201 325.327C215.052 324.839 215.947 324.427 216.877 324.097C217.197 323.984 217.518 323.879 217.864 323.765C217.991 323.733 218.109 323.692 218.235 323.652C218.421 323.595 218.607 323.539 218.801 323.498C219.763 323.223 220.801 322.989 221.923 322.77C222.261 322.705 222.615 322.641 222.97 322.584C223.257 322.535 223.552 322.487 223.847 322.438C226.354 322.058 229.198 321.775 232.337 321.589C232.632 321.573 232.928 321.556 233.223 321.54C233.569 321.524 233.915 321.508 234.269 321.492C234.565 321.476 234.869 321.467 235.172 321.459C235.468 321.443 235.772 321.435 236.084 321.427C236.936 321.403 237.814 321.379 238.708 321.362C241.257 321.322 243.941 321.338 246.759 321.395C248.067 321.419 249.401 321.459 250.768 321.516C250.852 321.516 250.945 321.524 251.029 321.524C252.219 321.557 253.426 321.613 254.65 321.67C255.511 321.71 256.38 321.751 257.249 321.799C258.067 321.848 258.895 321.896 259.73 321.953C260.38 321.985 261.03 322.034 261.688 322.074C262.245 322.115 262.802 322.155 263.359 322.188C264.025 322.236 264.692 322.285 265.367 322.333C266.296 322.406 267.224 322.479 268.169 322.552C269.106 322.633 270.059 322.713 271.013 322.794C271.967 322.875 272.929 322.964 273.891 323.053C273.992 323.061 274.085 323.069 274.178 323.078C275.055 323.167 275.933 323.247 276.819 323.336C281.731 323.814 286.786 324.372 291.984 325.011C295.09 325.392 298.234 325.799 301.419 326.233C306.254 326.888 311.166 327.6 316.111 328.361C321.065 329.129 326.047 329.941 331.057 330.796C332.323 331.015 333.588 331.233 334.863 331.46C336.415 331.735 337.968 332.015 339.521 332.301C340.5 332.479 341.479 332.657 342.458 332.843C343.622 333.062 344.795 333.28 345.96 333.498C353.631 334.955 361.26 336.508 368.703 338.134C369.927 338.401 371.151 338.677 372.366 338.944C374.796 339.486 377.204 340.036 379.59 340.594C380.248 340.748 380.898 340.901 381.547 341.055C383.176 341.444 384.788 341.832 386.383 342.22V342.228C386.476 342.245 386.569 342.269 386.661 342.293C387.826 342.576 388.982 342.859 390.13 343.151C392.839 343.83 395.503 344.515 398.122 345.206C399.86 345.675 401.582 346.136 403.278 346.606C405.818 347.317 408.308 348.029 410.73 348.741C411.329 348.919 411.928 349.097 412.519 349.267C414.291 349.801 416.029 350.333 417.734 350.861C419.084 351.282 420.401 351.711 421.7 352.14C423 352.568 424.274 352.997 425.523 353.426C426.333 353.701 427.127 353.984 427.911 354.259C429.059 354.664 430.173 355.068 431.27 355.481C431.608 355.602 431.937 355.732 432.266 355.853C432.882 356.08 433.481 356.314 434.072 356.549C434.469 356.695 434.857 356.848 435.245 357.01C435.625 357.156 436.013 357.31 436.384 357.463C436.764 357.609 437.135 357.763 437.507 357.924C437.819 358.046 438.123 358.175 438.418 358.305C439.017 358.556 439.616 358.806 440.199 359.065C440.486 359.195 440.773 359.316 441.06 359.446L441.718 359.737C441.811 359.785 441.903 359.826 441.996 359.866C442.714 360.19 443.406 360.513 444.081 360.837C444.714 361.145 445.33 361.452 445.92 361.751C446.621 362.107 447.287 362.455 447.929 362.811C448.055 362.876 448.182 362.949 448.309 363.014C448.739 363.248 449.153 363.491 449.566 363.725C450.376 364.203 451.144 364.672 451.861 365.141C452.57 365.611 453.229 366.072 453.845 366.533C453.845 366.541 453.845 366.541 453.853 366.541C454.148 366.768 454.435 366.994 454.705 367.213C455.144 367.577 455.549 367.925 455.921 368.281C456.045 368.39 456.163 368.507 456.275 368.628C456.324 368.667 456.369 368.711 456.41 368.758C456.587 368.944 456.765 369.13 456.933 369.316C457.136 369.543 457.322 369.769 457.499 369.996C457.583 370.109 457.676 370.222 457.752 370.336C457.853 370.473 457.954 370.619 458.039 370.756C458.115 370.87 458.182 370.991 458.25 371.104C458.429 371.396 458.581 371.702 458.706 372.019C458.798 372.234 458.874 372.456 458.933 372.682C458.997 372.897 459.045 373.116 459.077 373.337Z" fill="black"/>
</g>
<defs>
<clipPath id="clip0_1_21">
<rect width="664" height="463" fill="white"/>
</clipPath>
</defs>
</svg>
